<svg width="130" height="22" viewBox="0 0 130 22" fill="none" xmlns="http://www.w3.org/2000/svg">
<g clip-path="url(#clip0_213_396)">
<path d="M3.86721 11.2827L21.1178 6.67177H5.56053L3.86721 11.2827ZM3.63534 11.9141L2.91062 13.8875H2.91163L1.15488 18.7822L21.2595 7.2033L3.63534 11.9141ZM0.867557 19.5828L0 22H7.17942L21.5348 7.67981L0.867557 19.5828ZM7.95914 22H13.8627L21.9271 8.0663L7.95914 22ZM14.4994 22H18.7352L22.4036 8.34311L14.4994 22ZM19.306 22H22.936V8.48606L19.306 22ZM23.4873 22H27.1176L23.4873 8.48502V22ZM27.6367 21.8077L28.8205 18.5094C28.9991 18.0116 29.0628 17.4871 29.0148 16.9731L24.02 8.34301L27.6367 21.8077ZM27.755 13.6964C28.3491 13.5436 28.9122 13.3027 29.4268 12.9857L24.498 8.06888L27.755 13.6964ZM29.8901 12.67C30.3923 12.2926 30.8365 11.837 31.203 11.317L24.8875 7.6796L29.8901 12.67ZM31.4994 10.8526C31.6693 10.5576 31.8157 10.2456 31.9358 9.91859L32.2387 9.09403L25.1615 7.20236L31.4994 10.8526ZM32.4291 8.57549L33.1282 6.67177H25.3068L32.4291 8.57549ZM33.3302 6.12178L33.9496 4.43514C34.0314 4.21249 34.0876 3.98848 34.1202 3.76576L25.3058 6.12178H33.3302ZM34.1525 3.1877C34.1243 2.34279 33.7662 1.55196 33.1863 0.969353L25.1621 5.59081L34.1525 3.1877ZM32.7382 0.592356C32.2088 0.221799 31.5601 0 30.8433 0H30.0133L24.886 5.11466L32.7382 0.592356ZM29.2335 0H27.2323L24.4986 4.72332L29.2335 0ZM26.5957 0H25.2154L24.02 4.45015L26.5957 0ZM24.6446 0H23.4873V4.30838L24.6446 0ZM22.936 0H21.779L22.936 4.30735V0ZM21.2082 0H19.8279L22.4035 4.45002L21.2082 0ZM19.1913 0H17.189L21.9265 4.72591L19.1913 0ZM16.4093 0H12.6559L21.5363 5.11448L16.4093 0ZM5.76253 6.12178H21.1188L7.13513 2.38406L5.76253 6.12178ZM7.32809 1.86624L21.259 5.58981L11.5533 0H10.1293C8.89933 0 7.79581 0.74041 7.32809 1.86624Z" fill="#323232"/>
<path d="M106.769 6.85156H111.629L116.153 14.6423L120.691 6.85156H125.551V17.0833H123.267V6.95386L117.368 17.0833H114.952L109.038 6.95386V17.0833H106.769V6.85156Z" fill="#323232"/>
<path d="M92.1292 13.1075C90.4018 13.1075 89.0109 11.7189 89.0109 9.97952C89.0109 8.25478 90.4018 6.85156 92.1292 6.85156H105.378V9.13175H92.1292C91.661 9.13175 91.2804 9.5118 91.2804 9.97952C91.2804 10.4619 91.661 10.8419 92.1292 10.8419H102.245C103.972 10.8419 105.378 12.2305 105.378 13.9699C105.378 15.6947 103.972 17.0833 102.245 17.0833H89.0109V14.8177H102.245C102.713 14.8177 103.094 14.4376 103.094 13.9699C103.094 13.4875 102.713 13.1075 102.245 13.1075H92.1292Z" fill="#323232"/>
<path d="M83.8312 6.85156C86.0269 6.85156 87.8128 8.63477 87.8128 10.8419C87.8128 13.0344 86.0269 14.8177 83.8312 14.8177H73.5838V17.0833H71.3143V6.85156H83.8312ZM83.8164 12.5375C84.7682 12.5375 85.5295 11.7774 85.5295 10.8419C85.5295 9.89185 84.7682 9.13175 83.8164 9.13175H73.5838V12.5375H83.8164Z" fill="#323232"/>
<path d="M59.1081 9.13175C57.5272 9.13175 56.2531 10.4034 56.2531 11.9674C56.2531 13.546 57.5272 14.8177 59.1081 14.8177H67.5697V13.0344H58.8883V10.7688H69.853V17.0833H59.1081C56.268 17.0833 53.9843 14.803 53.9843 11.9674C53.9843 9.14638 56.268 6.85156 59.1081 6.85156H69.853V9.13175H59.1081Z" fill="#323232"/>
<path d="M39.2913 17.0833V6.85156H41.5604V14.8177H53.0228V17.0833H39.2913Z" fill="#323232"/>
<path d="M129.801 6.27993C129.801 7.01429 129.205 7.60966 128.47 7.60966C127.734 7.60966 127.138 7.01429 127.138 6.27993C127.138 5.54552 127.734 4.9502 128.47 4.9502C129.205 4.9502 129.801 5.54552 129.801 6.27993Z" fill="#323232"/>
</g>
<defs>
<clipPath id="clip0_213_396">
<rect width="130" height="22" fill="white"/>
</clipPath>
</defs>
</svg>
