<svg width="88" height="36" viewBox="0 0 88 36" fill="none" xmlns="http://www.w3.org/2000/svg">
<g clip-path="url(#clip0_213_172)">
<path d="M3.93286 5.65858H7.78928V4.70097H5.09537V0H3.93286V5.65858ZM14.4405 7.04348C15.0498 7.04348 15.579 6.90103 15.9237 6.58446C16.2284 6.30747 16.4128 5.91968 16.4128 5.34986V1.59858H15.3625V2.02594H15.3465C15.098 1.68563 14.7211 1.48778 14.208 1.48778C13.1657 1.48778 12.4281 2.26336 12.4281 3.47422C12.4281 4.7009 13.3261 5.41317 14.24 5.41317C14.7612 5.41317 15.0739 5.20741 15.3144 4.93832H15.3384V5.38151C15.3384 5.93551 15.0418 6.22833 14.4245 6.22833C13.9193 6.22833 13.6868 6.03047 13.5987 5.77723H12.5163C12.6285 6.56863 13.3181 7.04348 14.4405 7.04348ZM14.4245 4.55053C13.8633 4.55053 13.4944 4.14692 13.4944 3.4584C13.4944 2.77778 13.8633 2.35042 14.4165 2.35042C15.0739 2.35042 15.3946 2.85692 15.3946 3.45047C15.3946 4.05195 15.1139 4.55053 14.4245 4.55053ZM21.4985 0.96552H22.5889V0H21.4985V0.96552ZM21.4985 5.65858H22.5889V1.59865H21.4985V5.65858ZM29.3193 5.77723C30.3456 5.77723 31.0511 5.28655 31.0511 4.4714C31.0511 3.52171 30.2895 3.33177 29.6 3.18931C29.0147 3.0706 28.4695 3.03894 28.4695 2.69073C28.4695 2.39791 28.7501 2.23962 29.175 2.23962C29.64 2.23962 29.9207 2.39791 29.9687 2.83318H30.9549C30.8747 2.01803 30.2734 1.48778 29.1911 1.48778C28.253 1.48778 27.5154 1.90723 27.5154 2.7857C27.5154 3.67207 28.237 3.86992 28.9745 4.01238C29.5358 4.12317 30.057 4.16274 30.057 4.55053C30.057 4.83544 29.7843 5.01747 29.3033 5.01747C28.8142 5.01747 28.4775 4.81171 28.4054 4.34477H27.3951C27.4592 5.20741 28.1247 5.77723 29.3193 5.77723ZM35.6761 5.65851H36.7665V3.30011C36.7665 2.76195 37.0631 2.41373 37.5041 2.41373C37.9049 2.41373 38.1375 2.65115 38.1375 3.11017V5.65851H39.2278V3.30011C39.2278 2.76195 39.5085 2.41373 39.9655 2.41373C40.3663 2.41373 40.5989 2.65115 40.5989 3.11017V5.65851H41.6892V2.92815C41.6892 2.04177 41.2001 1.48778 40.3343 1.48778C39.8131 1.48778 39.3802 1.75686 39.0995 2.20005H39.0836C38.8831 1.77269 38.4662 1.48778 37.9451 1.48778C37.3758 1.48778 36.975 1.77269 36.7505 2.14465H36.7264V1.59858H35.6761V5.65851ZM35.0809 5.65861V1.59867H33.9906V3.94125C33.9906 4.47941 33.6778 4.85928 33.1647 4.85928C32.6997 4.85928 32.4832 4.59812 32.4832 4.12328V1.59867H31.4009V4.30529C31.4009 5.19168 31.9139 5.76941 32.828 5.76941C33.4052 5.76941 33.7259 5.55572 34.0065 5.18376H34.0306V5.65861H35.0809ZM23.1815 6.98808H24.2718V5.1995H24.2879C24.5204 5.54771 24.8972 5.77723 25.4744 5.77723C26.5328 5.77723 27.2543 4.94624 27.2543 3.6325C27.2543 2.36625 26.5568 1.48778 25.4664 1.48778C24.9052 1.48778 24.5204 1.74894 24.2558 2.10508H24.2318V1.59858H23.1815V6.98808ZM25.2419 4.88293C24.5925 4.88293 24.2478 4.40017 24.2478 3.66416C24.2478 2.93606 24.5204 2.35833 25.2019 2.35833C25.8754 2.35833 26.1479 2.89649 26.1479 3.66416C26.1479 4.43183 25.7951 4.88293 25.2419 4.88293ZM18.9531 5.77723C20.2279 5.77723 21.1018 4.84336 21.1018 3.6325C21.1018 2.42164 20.2279 1.48778 18.9531 1.48778C17.6783 1.48778 16.8044 2.42164 16.8044 3.6325C16.8044 4.84336 17.6783 5.77723 18.9531 5.77723ZM18.9531 4.95416C18.2796 4.95416 17.9108 4.42391 17.9108 3.6325C17.9108 2.84109 18.2796 2.30294 18.9531 2.30294C19.6185 2.30294 19.9954 2.84109 19.9954 3.6325C19.9954 4.42391 19.6185 4.95416 18.9531 4.95416ZM10.0831 5.77723C11.3579 5.77723 12.2318 4.84336 12.2318 3.6325C12.2318 2.42164 11.3579 1.48778 10.0831 1.48778C8.80831 1.48778 7.93441 2.42164 7.93441 3.6325C7.93441 4.84336 8.80831 5.77723 10.0831 5.77723ZM10.0831 4.95416C9.40958 4.95416 9.04083 4.42391 9.04083 3.6325C9.04083 2.84109 9.40958 2.30294 10.0831 2.30294C10.7485 2.30294 11.1254 2.84109 11.1254 3.6325C11.1254 4.42391 10.7485 4.95416 10.0831 4.95416Z" fill="#323232"/>
<path d="M4.71936 31.2842H6.57501V27.5152H10.5551V25.9363H6.57501V23.7463H11.2717V22.1802H4.71936V31.2842ZM17.8718 31.4751C19.625 31.4751 20.7129 30.3673 20.828 28.9794H19.1515C19.0363 29.7179 18.5372 30.0872 17.8333 30.0872C16.7712 30.0872 16.272 29.2595 16.272 28.0244C16.272 26.7639 16.8096 25.9617 17.859 25.9617C18.4989 25.9617 18.9467 26.3946 19.062 26.9676H20.764C20.5337 25.5543 19.4843 24.5738 17.7822 24.5738C15.7858 24.5738 14.506 26.0763 14.506 28.0244C14.506 29.9725 15.7986 31.4751 17.8718 31.4751ZM25.6231 23.7336H27.3636V22.1802H25.6231V23.7336ZM25.6231 31.2842H27.3636V24.7522H25.6231V31.2842ZM37.3225 24.7521H35.6204V31.284H37.3609V27.5788C37.3609 26.6875 37.924 26.0763 38.6919 26.0763C39.4213 26.0763 39.8309 26.5729 39.8309 27.2732V31.284H41.5714V27.0185C41.5714 25.5924 40.6627 24.5738 39.3062 24.5738C38.4103 24.5738 37.8088 24.9431 37.3609 25.6434H37.3225V24.7521ZM49.1429 31.2842H50.8836V22.1802H49.1429V31.2842ZM63.9921 31.4751C66.0271 31.4751 67.4225 29.9725 67.4225 28.0244C67.4225 26.0763 66.0271 24.5738 63.9921 24.5738C61.9572 24.5738 60.5626 26.0763 60.5626 28.0244C60.5626 29.9725 61.9572 31.4751 63.9921 31.4751ZM63.9921 30.1508C62.9177 30.1508 62.3285 29.2977 62.3285 28.0244C62.3285 26.7512 62.9177 25.8853 63.9921 25.8853C65.0548 25.8853 65.6558 26.7512 65.6558 28.0244C65.6558 29.2977 65.0548 30.1508 63.9921 30.1508ZM78.2892 31.4751C80.3241 31.4751 81.7188 29.9725 81.7188 28.0244C81.7188 26.0763 80.3241 24.5738 78.2892 24.5738C76.2543 24.5738 74.8589 26.0763 74.8589 28.0244C74.8589 29.9725 76.2543 31.4751 78.2892 31.4751ZM78.2892 30.1508C77.214 30.1508 76.6256 29.2977 76.6256 28.0244C76.6256 26.7512 77.214 25.8853 78.2892 25.8853C79.3511 25.8853 79.9529 26.7512 79.9529 28.0244C79.9529 29.2977 79.3511 30.1508 78.2892 30.1508ZM4.71936 18.4289H8.13655C9.28843 18.4289 10.1715 18.1155 10.8499 17.564C11.8098 16.7742 12.3089 15.4956 12.3089 14.0416C12.3089 11.3966 10.7347 9.46624 8.29017 9.46624H4.71936V18.4289ZM6.57516 16.862V11.0206H8.05978C9.63398 11.0206 10.4275 12.2616 10.4275 14.0416C10.4275 15.8216 9.74922 16.862 8.00857 16.862H6.57516ZM19.9261 20.5348H21.6666V17.7019H21.6923C22.0634 18.2534 22.6649 18.6169 23.5865 18.6169C25.2758 18.6169 26.4277 17.3007 26.4277 15.2199C26.4277 13.2142 25.3142 11.8228 23.5736 11.8228C22.6777 11.8228 22.0634 12.2365 21.6411 12.8006H21.6027V11.9984H19.9261V20.5348ZM23.2153 17.2005C22.1786 17.2005 21.6282 16.4358 21.6282 15.2701C21.6282 14.1168 22.0634 13.2017 23.1512 13.2017C24.2263 13.2017 24.6615 14.0541 24.6615 15.2701C24.6615 16.4859 24.0984 17.2005 23.2153 17.2005ZM35.3878 11.9984H33.7111V18.4289H35.4517V15.2951C35.4517 13.9413 36.2709 13.3521 37.4099 13.465H37.4483V11.9733C37.3459 11.9357 37.2307 11.9232 37.0387 11.9232C36.2709 11.9232 35.8229 12.2992 35.4261 13.0263H35.3878V11.9984ZM42.2969 18.4289H44.0371V14.6934C44.0371 13.841 44.5106 13.2894 45.2146 13.2894C45.8549 13.2894 46.2262 13.6656 46.2262 14.3926V18.4289H47.9669V14.6934C47.9669 13.841 48.4145 13.2894 49.1444 13.2894C49.7839 13.2894 50.1552 13.6656 50.1552 14.3926V18.4289H51.8959V14.1043C51.8959 12.7003 51.1149 11.8228 49.7328 11.8228C48.9006 11.8228 48.21 12.249 47.7616 12.951H47.7365C47.4163 12.2742 46.7509 11.8228 45.9186 11.8228C45.0101 11.8228 44.3698 12.2742 44.0119 12.8633H43.9734V11.9984H42.2969V18.4289ZM61.4216 11.9984H59.7194V18.4289H61.4593V14.7812C61.4593 13.9037 62.0225 13.302 62.791 13.302C63.5202 13.302 63.93 13.7909 63.93 14.4803V18.4289H65.6707V14.2296C65.6707 12.8257 64.7614 11.8228 63.4053 11.8228C62.5094 11.8228 61.9077 12.1864 61.4593 12.8758H61.4216V11.9984ZM75.2192 18.6044C76.2944 18.6044 77.1432 18.2158 77.7661 17.4386C78.3891 16.6615 78.6998 15.7297 78.6998 14.6433C78.6998 13.7742 78.4402 13.0806 77.9195 12.5624C77.3988 12.0443 76.7333 11.7853 75.9232 11.7853C74.8731 11.7853 74.029 12.178 73.3888 12.9636C72.7485 13.7408 72.4291 14.6767 72.4291 15.7714C72.4291 16.6572 72.6887 17.3509 73.2094 17.8523C73.7388 18.3537 74.4082 18.6044 75.2192 18.6044ZM73.4525 15.7589C73.4525 14.8982 73.6664 14.1586 74.0928 13.5402C74.5277 12.9218 75.1295 12.6126 75.8972 12.6126C76.4777 12.6126 76.9166 12.8048 77.2155 13.1892C77.5144 13.5736 77.6631 14.0583 77.6631 14.6433C77.6631 15.5207 77.4499 16.2603 77.0236 16.862C76.5965 17.4637 76.0081 17.7646 75.2569 17.7646C74.6772 17.7646 74.2288 17.5806 73.9134 17.213C73.6066 16.8369 73.4525 16.3523 73.4525 15.7589ZM79.3944 12.7631H80.2903L79.2142 18.2395L79.1773 18.429H80.188L81.2641 12.9525L81.3019 12.7631H82.5179L82.6839 11.9483H81.4678L81.6598 10.9581C81.7109 10.7073 81.7966 10.5276 81.9162 10.419C82.0358 10.3104 82.2528 10.2561 82.5691 10.2561C82.7138 10.2561 82.8459 10.2602 82.9655 10.2686L83.1323 9.41616C82.9443 9.39949 82.7563 9.39111 82.5691 9.39111C82.0059 9.39111 81.5748 9.50811 81.2759 9.74211C80.9778 9.97611 80.7725 10.3647 80.6616 10.9079L80.4571 11.9483H79.5611L79.3944 12.7631ZM66.1277 13.1265H67.0363V16.8996C67.0363 18.1156 67.9707 18.4414 68.8155 18.4414C69.5061 18.4414 69.9034 18.4164 69.9034 18.4164V17.1629C69.9034 17.1629 69.6092 17.1754 69.3913 17.1754C69.0074 17.1754 68.7384 17.0125 68.7384 16.5361V13.1265H69.8648V11.9984H68.7384V9.9927H67.0363V11.9984H66.1277V13.1265ZM55.9485 18.6169C57.6381 18.6169 58.6748 17.6517 58.9178 16.5111H57.2031C57.0111 16.9999 56.6139 17.3007 55.9359 17.3007C54.9503 17.3007 54.3871 16.6865 54.2589 15.6963H59.0201C59.0201 13.4023 57.8937 11.8228 55.7817 11.8228C53.8624 11.8228 52.5441 13.302 52.5441 15.2074C52.5441 17.1252 53.7728 18.6169 55.9485 18.6169ZM55.8077 13.1391C56.6013 13.1391 57.1519 13.7031 57.2031 14.5179H54.2848C54.4382 13.6781 54.8858 13.1391 55.8077 13.1391ZM37.77 13.1265H38.6787V16.8996C38.6787 18.1156 39.613 18.4414 40.4577 18.4414C41.1488 18.4414 41.5456 18.4164 41.5456 18.4164V17.1629C41.5456 17.1629 41.2512 17.1754 41.0337 17.1754C40.6497 17.1754 40.381 17.0125 40.381 16.5361V13.1265H41.5072V11.9984H40.381V9.9927H38.6787V11.9984H37.77V13.1265ZM31.265 18.4289H32.9416V18.3663C32.788 18.2535 32.7112 17.9651 32.7112 17.4762V14.2045C32.7112 12.7004 31.9177 11.8354 29.9468 11.8354C28.0269 11.8354 27.1695 12.8257 27.1182 13.9539H28.6669C28.7181 13.3397 29.1148 13.0514 29.9339 13.0514C30.6635 13.0514 31.0346 13.3522 31.0346 13.816C31.0346 14.3049 30.5354 14.3926 29.4476 14.543C27.9885 14.7436 26.8111 15.1949 26.8111 16.6114C26.8111 17.8899 27.7582 18.5793 29.102 18.5793C30.2283 18.5793 30.7019 18.2033 31.0346 17.7145H31.0602C31.0986 18.0028 31.1626 18.3036 31.265 18.4289ZM29.5243 17.3885C28.91 17.3885 28.5005 17.1754 28.5005 16.5737C28.5005 15.9721 28.9485 15.7715 29.8572 15.5709C30.2923 15.4707 30.7658 15.3703 31.073 15.1949V16.1601C31.073 16.7868 30.5227 17.3885 29.5243 17.3885ZM16.1555 18.6169C17.8448 18.6169 18.8815 17.6517 19.1247 16.5111H17.4097C17.2177 16.9999 16.8209 17.3007 16.1426 17.3007C15.1571 17.3007 14.594 16.6865 14.466 15.6963H19.2271C19.2271 13.4023 18.1008 11.8228 15.989 11.8228C14.0693 11.8228 12.751 13.302 12.751 15.2074C12.751 17.1252 13.9797 18.6169 16.1555 18.6169ZM16.0147 13.1391C16.8082 13.1391 17.3585 13.7031 17.4097 14.5179H14.4916C14.6452 13.6781 15.0932 13.1391 16.0147 13.1391ZM85.083 31.4751C86.7215 31.4751 87.8471 30.6856 87.8471 29.3741C87.8471 27.8462 86.6318 27.5406 85.5314 27.3114C84.5969 27.1204 83.7261 27.0695 83.7261 26.5092C83.7261 26.0381 84.1745 25.7835 84.8525 25.7835C85.5951 25.7835 86.0426 26.0381 86.1197 26.7384H87.6937C87.5655 25.4269 86.6059 24.5738 84.8785 24.5738C83.3808 24.5738 82.2033 25.2486 82.2033 26.662C82.2033 28.0881 83.3557 28.4064 84.5324 28.6356C85.4283 28.8139 86.2605 28.8775 86.2605 29.5014C86.2605 29.9599 85.8255 30.2527 85.0578 30.2527C84.2767 30.2527 83.7395 29.9216 83.6239 29.1704H82.0114C82.1136 30.5583 83.1763 31.4751 85.083 31.4751ZM71.0172 33.5123C71.9894 33.5123 72.8342 33.2831 73.3848 32.7738C73.8709 32.3281 74.1651 31.7042 74.1651 30.7875V24.7521H72.4889V25.4397H72.4629C72.0665 24.8922 71.4648 24.5738 70.6459 24.5738C68.9823 24.5738 67.8048 25.8217 67.8048 27.7698C67.8048 29.7434 69.2379 30.8894 70.6971 30.8894C71.5285 30.8894 72.028 30.5583 72.4118 30.1254H72.4504V30.8384C72.4504 31.7297 71.9768 32.2008 70.9912 32.2008C70.185 32.2008 69.8137 31.8825 69.6729 31.4751H67.9456C68.1249 32.7483 69.2253 33.5123 71.0172 33.5123ZM70.9912 29.5014C70.0953 29.5014 69.5069 28.8521 69.5069 27.7443C69.5069 26.6493 70.0953 25.9617 70.9786 25.9617C72.028 25.9617 72.54 26.7766 72.54 27.7315C72.54 28.6992 72.0917 29.5014 70.9912 29.5014ZM54.1063 31.2842H60.2621V29.7435H55.9618V22.1802H54.1063V31.2842ZM46.6714 31.284H48.3476V31.2204C48.1942 31.1058 48.1172 30.8129 48.1172 30.3163V26.9931C48.1172 25.4651 47.3243 24.5866 45.3531 24.5866C43.4338 24.5866 42.5756 25.5924 42.5245 26.7384H44.0733C44.1244 26.1145 44.5209 25.8217 45.3405 25.8217C46.0697 25.8217 46.4409 26.1273 46.4409 26.5983C46.4409 27.095 45.9415 27.184 44.8536 27.3369C43.3953 27.5406 42.2176 27.999 42.2176 29.4378C42.2176 30.7365 43.1648 31.4369 44.5083 31.4369C45.6347 31.4369 46.1082 31.0549 46.4409 30.5583H46.4661C46.5047 30.8511 46.5691 31.1567 46.6714 31.284ZM44.9307 30.2272C44.3164 30.2272 43.9065 30.0107 43.9065 29.3996C43.9065 28.7884 44.3549 28.5847 45.2634 28.381C45.6984 28.2791 46.1719 28.1772 46.4795 27.999V28.9794C46.4795 29.6161 45.9289 30.2272 44.9307 30.2272ZM31.4883 31.4751C33.5231 31.4751 34.9181 29.9725 34.9181 28.0244C34.9181 26.0763 33.5231 24.5738 31.4883 24.5738C29.4535 24.5738 28.0585 26.0763 28.0585 28.0244C28.0585 29.9725 29.4535 31.4751 31.4883 31.4751ZM31.4883 30.1508C30.4133 30.1508 29.8246 29.2977 29.8246 28.0244C29.8246 26.7512 30.4133 25.8853 31.4883 25.8853C32.5505 25.8853 33.152 26.7512 33.152 28.0244C33.152 29.2977 32.5505 30.1508 31.4883 30.1508ZM21.0966 25.8981H22.0052V29.7306C22.0052 30.9658 22.9394 31.2968 23.7841 31.2968C24.4751 31.2968 24.8719 31.2714 24.8719 31.2714V29.9981C24.8719 29.9981 24.5776 30.0108 24.36 30.0108C23.9761 30.0108 23.7073 29.8452 23.7073 29.3614V25.8981H24.8335V24.7521H23.7073V22.7149H22.0052V24.7521H21.0966V25.8981ZM12.0706 31.2842H13.8111V24.7522H12.0706V31.2842ZM12.0706 23.7336H13.8111V22.1802H12.0706V23.7336Z" fill="#323232"/>
</g>
<defs>
<clipPath id="clip0_213_172">
<rect width="88" height="36" fill="white"/>
</clipPath>
</defs>
</svg>
