<svg width="81" height="36" viewBox="0 0 81 36" fill="none" xmlns="http://www.w3.org/2000/svg">
<g clip-path="url(#clip0_213_191)">
<path d="M47.7464 6.45836C47.89 6.60114 48.0758 6.69677 48.2867 6.64777C50.1174 6.22186 51.9107 5.64199 53.5711 4.7554C53.7708 4.64878 53.9242 4.40569 53.9996 4.20314C54.0856 3.97159 54.1205 3.65369 54.0513 3.41238C53.9938 3.21228 53.8944 2.97792 53.6939 2.87983C53.502 2.78598 53.312 2.79245 53.121 2.89438C52.5889 3.17859 52.0416 3.43275 51.4821 3.65923C50.4207 4.07156 49.3234 4.37903 48.2142 4.63705C47.7333 4.74893 47.4788 5.35319 47.511 5.80192C47.5273 6.02851 47.5778 6.29084 47.7464 6.45836Z" fill="#323232"/>
<path d="M77.0424 6.99738C76.9669 6.83945 76.8462 6.64841 76.6489 6.63192C76.4404 6.61456 76.3058 6.72378 76.1605 6.85884C75.4309 7.53814 74.8383 8.34529 74.114 9.02859C73.8751 9.23948 73.6215 9.43191 73.3522 9.60349C73.4359 9.4286 73.5214 9.25476 73.6116 9.08312C73.8892 8.55368 74.1977 8.04092 74.5333 7.54568C74.6644 7.35895 74.7915 7.175 74.8776 6.95825C74.9976 6.65689 75.0041 6.2487 74.8746 5.94908C74.7915 5.7563 74.5614 5.48346 74.3096 5.59374C74.1708 5.65456 74.0877 5.70947 73.9764 5.82378C73.9407 5.86042 73.9067 5.8988 73.8722 5.9366C73.7919 6.02532 73.7123 6.11457 73.6327 6.20422C73.4728 6.38497 73.3147 6.56741 73.1578 6.75113C72.8591 7.10132 72.5658 7.45598 72.273 7.81087C71.6992 8.50543 71.1253 9.20023 70.5122 9.86112C70.3418 10.0447 70.1691 10.2259 69.9922 10.4041C70.0976 10.1964 70.1995 9.98677 70.2991 9.77617C70.6926 8.94126 71.0492 8.08952 71.4602 7.26262C71.5803 7.02107 71.705 6.7815 71.8356 6.54529C71.8982 6.4316 71.9627 6.31878 72.0282 6.20683C72.0634 6.14697 72.1008 6.08809 72.1348 6.02765C72.2349 5.85101 72.283 5.66686 72.3316 5.47023C72.3819 5.26308 72.3567 4.92265 72.263 4.7264C72.1776 4.54704 72.0704 4.41779 71.8695 4.36092C71.561 4.27353 71.2887 4.67571 71.1042 4.87413C70.9824 5.00497 70.8606 5.13572 70.7388 5.26627C70.47 5.55432 70.2001 5.84184 69.9302 6.12903C69.3522 6.74428 68.7725 7.35825 68.1934 7.97269C67.739 8.4548 67.284 8.93639 66.8302 9.41948C66.9848 8.96815 67.1364 8.51536 67.2858 8.06182C67.4199 7.65438 67.5569 7.24764 67.6851 6.83852C67.8292 6.38016 67.8713 5.78437 67.537 5.38923C67.3162 5.12811 66.9496 5.05603 66.6621 5.26336C66.3899 5.45962 66.2329 5.79873 66.0567 6.07729C65.9308 6.27657 65.8055 6.4759 65.6796 6.67536C65.4442 7.04865 65.2088 7.42201 64.9722 7.79472C64.5471 8.46525 64.119 9.13445 63.6699 9.78994C63.2501 10.3969 62.808 11.0052 62.2704 11.5146C62.0953 11.6666 61.9074 11.8037 61.7018 11.912C61.5543 11.9731 61.4009 12.0158 61.2422 12.0367C61.2439 12.029 61.2451 12.0212 61.2469 12.0135C61.2521 11.9926 61.258 11.9717 61.2638 11.951C61.3306 11.7197 61.412 11.4926 61.5004 11.2686C61.5443 11.156 61.5918 11.0445 61.6392 10.9332L61.6404 10.9307C61.669 10.8673 61.6977 10.8041 61.727 10.741C62.1404 9.85433 62.6194 8.99712 63.1242 8.15908C63.2337 7.97774 63.3438 7.7967 63.4579 7.61827C63.5756 7.43467 63.619 7.19625 63.6348 6.98501C63.65 6.78788 63.6436 6.55992 63.5563 6.37737C63.5007 6.26124 63.4292 6.15063 63.3227 6.0741C63.1751 5.96796 62.9655 6.00663 62.8261 6.10057C61.5877 6.93432 60.3615 7.78787 59.1664 8.68195V8.67899C59.1693 8.65117 59.1716 8.6233 59.1745 8.59549C59.1851 8.49173 59.198 8.38808 59.2132 8.28473C59.2284 8.18196 59.246 8.07947 59.2653 7.97745C59.2747 7.92932 59.2999 7.82788 59.3145 7.76499C59.3555 7.61995 59.3982 7.47577 59.4503 7.33404C59.4679 7.28683 59.4872 7.24067 59.506 7.1941C59.53 7.14092 59.5727 7.04592 59.5944 7.00371C59.6278 6.93903 59.6641 6.87614 59.7004 6.81303C59.8837 6.58199 60.064 6.34857 60.2391 6.11079C60.3931 5.90095 60.4944 5.68366 60.536 5.42433C60.5717 5.19916 60.5688 4.89319 60.4675 4.6805C60.3919 4.52254 60.2713 4.33153 60.074 4.31502C59.8714 4.29812 59.722 4.40137 59.5862 4.54197C59.3245 4.81256 59.099 5.10793 58.9034 5.42095C58.2739 6.1922 57.5944 6.91969 56.8686 7.60741C56.7829 7.68864 56.6965 7.76941 56.6102 7.85012C56.584 7.4835 56.4945 7.10439 56.3223 6.78562C56.1231 6.41708 55.8425 6.11468 55.4136 6.02672C55.0414 5.95042 54.679 6.08519 54.3485 6.2365C54.0154 6.38898 53.7151 6.60458 53.4329 6.83509C52.7403 7.40081 52.122 8.04614 51.5415 8.72306C51.618 8.57871 51.695 8.43436 51.7678 8.28821C51.9257 7.97124 52.0193 7.58372 51.9297 7.23016C51.8673 6.98414 51.7546 6.74381 51.504 6.64992C51.1073 6.50134 50.7618 6.90065 50.5196 7.15985C50.2262 7.47403 49.9265 7.78044 49.645 8.10577C49.2819 8.52541 48.9327 8.95671 48.5874 9.3908C48.1871 9.89393 47.7927 10.4015 47.398 10.909C47.6616 10.3558 47.8998 9.78332 48.008 9.18467C48.0882 8.74117 48.0804 8.18648 47.7857 7.81441C47.5682 7.5397 47.2527 7.47403 46.9202 7.54168C46.7415 7.57808 46.5728 7.66013 46.4081 7.73416C46.2436 7.80825 46.0851 7.89448 45.9301 7.98639C45.6654 8.14328 45.4095 8.31498 45.1584 8.49312C45.1264 8.41154 45.0827 8.33612 45.0225 8.27347C44.8945 8.14061 44.7042 8.02373 44.5092 8.08841C43.0553 8.57029 41.6921 9.3091 40.5113 10.2792C39.8851 10.7938 39.2982 11.3458 38.7738 11.9633C38.1908 12.6499 37.6433 13.3858 37.2879 14.2157C37.1412 14.5583 37.0418 14.9366 37.0036 15.3151C36.4023 15.772 35.7985 16.2258 35.193 16.6773C36.0328 15.4013 36.8599 14.1172 37.6619 12.8177C37.9041 12.4251 38.1474 12.0323 38.3702 11.6284C38.4887 11.4134 38.6112 11.1928 38.6921 10.9613C38.8286 10.5708 38.8556 10.0398 38.5613 9.70505C38.4158 9.53956 38.2375 9.48127 38.0273 9.51099C37.8626 9.53428 37.7351 9.6529 37.6161 9.75399C37.4189 9.92134 37.2548 10.1323 37.0899 10.3298C36.965 10.4795 36.8425 10.6308 36.7204 10.7827C36.6383 10.5631 36.5308 10.3579 36.3911 10.1602C36.2464 9.95536 36.0392 9.76369 35.8107 9.65563C34.954 9.25057 34.0317 9.70888 33.328 10.2136C32.6489 10.7007 32.0393 11.2763 31.4533 11.8704C31.4249 11.8918 31.397 11.9145 31.3706 11.9398C31.2612 12.0447 31.1472 12.1439 31.0295 12.2391C30.8542 12.3635 30.669 12.4717 30.4713 12.5571C30.3106 12.6083 30.1461 12.6415 29.9778 12.6554C29.884 12.6528 29.7906 12.6462 29.6984 12.632C29.7007 12.5608 29.7019 12.4896 29.7013 12.4182C29.695 11.7151 29.5143 10.9321 29.0553 10.3787C28.7833 10.0508 28.3851 9.88644 27.9616 9.92511C27.736 9.94566 27.5357 10.0504 27.3683 10.1986C27.2802 10.2041 27.1936 10.2284 27.1161 10.2799C25.8604 11.1144 24.7159 12.0862 23.6889 13.1729C23.6654 13.1925 23.643 13.2134 23.6227 13.2368C23.6 13.2631 23.5771 13.2892 23.5543 13.3154C23.2954 13.5947 23.0449 13.882 22.8016 14.1758C21.6697 15.459 20.5054 16.7151 19.2353 17.8657C18.7817 18.2765 18.3144 18.6724 17.8309 19.0483C17.2619 19.4792 16.6697 19.8803 16.0449 20.2278C15.8415 20.341 15.6876 20.5678 15.608 20.7788C15.5209 21.0101 15.4867 21.329 15.5583 21.5698C15.6185 21.7725 15.7229 22.0059 15.9265 22.1041C16.1194 22.197 16.3221 22.1982 16.5134 22.0918C17.8059 21.3726 18.9777 20.4368 20.0687 19.4472C20.3718 19.1722 20.6687 18.8904 20.9611 18.6045C20.9743 18.6589 20.9888 18.7131 21.0059 18.7664C21.2056 19.3881 21.6317 19.9423 22.2448 20.2115C22.8522 20.4783 23.5247 20.4955 24.1638 20.3295C25.9266 19.8717 27.2116 18.5451 28.1379 17.0419C28.0264 17.5593 27.9805 18.0861 28.1128 18.6113C28.2585 19.1905 28.6194 19.7542 29.2521 19.8701C29.7141 19.9547 30.1725 19.7522 30.5737 19.5495C31.1616 19.2525 31.6929 18.8376 32.1885 18.3988C31.9527 18.7487 31.7158 19.0979 31.4791 19.4472C30.6239 20.0919 29.7731 20.7426 28.9312 21.4046C27.89 21.6813 26.8516 21.9686 25.817 22.2693C24.6915 22.5965 23.5701 22.9385 22.4542 23.2968C21.3843 23.6404 20.3192 23.9988 19.2603 24.3739C18.1925 24.7523 17.131 25.1483 16.076 25.5603C15.1234 25.9324 14.177 26.32 13.2383 26.7253C12.3437 27.1115 11.4561 27.5139 10.5774 27.9346C9.75131 28.3303 8.93304 28.7422 8.12508 29.1732C7.36497 29.5787 6.61392 30.0009 5.87477 30.4429C5.52351 30.653 5.175 30.8676 4.82961 31.0871C4.83501 31.0798 4.8404 31.0724 4.8458 31.065C5.8425 29.7014 6.828 28.3298 7.81093 26.9565C8.5512 25.9221 9.29071 24.8872 10.032 23.8536C10.0667 23.8292 10.1014 23.8049 10.136 23.7804C11.097 23.099 12.0378 22.3902 12.9679 21.6679C13.95 20.9053 14.9168 20.1234 15.8704 19.3262C16.884 18.4788 17.883 17.6141 18.8668 16.7328C19.8696 15.8345 20.857 14.9191 21.8259 13.985C22.7759 13.0693 23.7084 12.1357 24.6172 11.1797C25.4726 10.28 26.3074 9.36067 27.1096 8.41392C27.8754 7.51003 28.617 6.58303 29.3057 5.61974C29.5919 5.21925 29.8687 4.812 30.1312 4.39574C30.4595 3.87501 30.8301 3.32172 30.9952 2.72759C31.124 2.26403 31.2212 1.74996 31.0621 1.27936C30.9887 1.06236 30.8993 0.85174 30.7297 0.688521C30.5579 0.52333 30.4082 0.450777 30.184 0.380477C29.9212 0.298069 29.6155 0.325382 29.3487 0.37738C29.0177 0.441955 28.694 0.570447 28.39 0.712548C27.6268 1.06921 26.9384 1.57914 26.2869 2.10475C25.6413 2.62576 25.0279 3.19022 24.4325 3.7667C23.2235 4.93701 22.0519 6.14517 20.9146 7.38409C19.7952 8.60356 18.7091 9.85282 17.6508 11.1248C16.5591 12.4372 15.4955 13.7728 14.4528 15.1237C13.4514 16.4213 12.4701 17.7341 11.5008 19.0555C10.7227 20.1161 9.95327 21.1828 9.18612 22.251C8.427 22.7786 7.65517 23.2898 6.85758 23.7581C6.31453 24.0769 5.75702 24.3839 5.17027 24.6175C4.97973 24.6863 4.782 24.7459 4.58086 24.7673C4.56297 24.766 4.54527 24.7639 4.52758 24.7613C4.46056 24.7359 4.3908 24.7272 4.31801 24.7375C4.21275 24.7289 4.11431 24.7544 4.02279 24.8142C3.82553 24.9232 3.65572 25.1567 3.58502 25.3651C3.50068 25.6139 3.45903 25.8999 3.53542 26.1561C3.59183 26.3455 3.70059 26.6164 3.90485 26.6905C4.02506 26.7342 4.13665 26.7826 4.26368 26.7913C4.40282 26.801 4.54641 26.7949 4.68507 26.7773C4.88659 26.7517 5.08347 26.691 5.27391 26.6225C5.66436 26.4821 6.04124 26.3134 6.40956 26.127C6.17575 26.4535 5.94234 26.7802 5.70809 27.1062C4.72596 28.4729 3.73826 29.8357 2.73702 31.1886C2.22987 31.8739 1.71921 32.5566 1.2042 33.236C0.892795 33.6468 0.499322 34.0622 0.436283 34.5956C0.397286 34.9255 0.435905 35.3008 0.673104 35.5579C0.827201 35.7249 1.05541 35.802 1.28021 35.7584C1.51921 35.7121 1.71846 35.5432 1.89886 35.3955C2.16578 35.177 2.4346 34.9611 2.70739 34.7498C3.40262 34.2208 4.11858 33.7188 4.85034 33.2409C5.67979 32.6991 6.52872 32.1868 7.39137 31.6987C8.31844 31.1743 9.26137 30.6777 10.216 30.2043C11.2433 29.6949 12.2841 29.2122 13.3348 28.7522C14.4503 28.2638 15.577 27.801 16.7124 27.36C16.8161 27.3197 16.9199 27.2798 17.0238 27.2399C18.3819 26.7215 19.7513 26.2329 21.1299 25.7709C22.4811 25.3182 23.8413 24.8918 25.2077 24.4865C24.5423 25.0725 23.889 25.672 23.2525 26.2889C22.3733 27.1412 21.4956 28.0123 20.7554 28.9879C19.919 30.0903 19.2506 31.3223 18.9604 32.6809C18.8164 33.3551 18.8133 34.124 19.1241 34.7556C19.2692 35.0508 19.4862 35.3409 19.7903 35.4875C20.0128 35.5948 20.2486 35.6633 20.496 35.6594C20.7586 35.6552 21.0016 35.6243 21.2475 35.5306C21.5097 35.4306 21.7603 35.3142 21.9967 35.1636C22.4423 34.8796 22.8505 34.5254 23.2212 34.151C24.0733 33.2901 24.7255 32.2625 25.3828 31.2547C26.7575 29.1469 28.1682 27.0627 29.5843 24.9822C30.0555 24.2897 30.5274 23.5977 30.999 22.9056C32.4614 22.5386 33.9291 22.1921 35.4015 21.8668C37.1679 21.4765 38.9408 21.1149 40.7187 20.7796C41.9983 20.5381 43.2807 20.3113 44.5652 20.0966C44.3073 20.7782 44.1057 21.4853 44.0744 22.2125C44.0663 22.4016 44.0835 22.596 44.1218 22.7806C44.1812 23.0665 44.3756 23.3824 44.7047 23.3671C45.0302 23.352 45.2848 23.0178 45.3711 22.7291C45.6656 21.7437 45.9958 20.7696 46.3538 19.8055C54.8884 18.4597 63.5101 17.1097 72.1448 16.7734C72.6355 16.7543 72.9347 16.4438 72.9124 16.16C72.8802 15.7447 72.6583 15.4699 72.112 15.4699C63.8099 15.7936 55.5527 16.6953 47.2904 17.6353C47.3963 17.4432 47.5032 17.2516 47.6117 17.0609C48.0821 16.2337 48.5771 15.4202 49.0921 14.6195C49.1604 14.8329 49.2487 15.0392 49.3658 15.232C49.5073 15.465 49.6915 15.6911 49.9489 15.8039C50.2227 15.924 50.4934 15.9517 50.7885 15.8819C51.3812 15.742 51.8827 15.3149 52.3197 14.919C52.8135 14.4717 53.2507 13.9633 53.6655 13.4442C54.092 12.9103 54.4984 12.3595 54.8888 11.7977C55.3158 11.2947 55.7718 10.8165 56.2532 10.3591C56.7966 9.84301 57.3519 9.34017 57.8882 8.81788C57.8676 9.1082 57.8602 9.39771 57.8637 9.68426C57.0614 10.3213 56.2782 10.9858 55.5527 11.7069C55.069 12.1875 54.5751 12.7185 54.2628 13.3289C54.069 13.7074 53.9483 14.1023 53.9365 14.5286C53.9276 14.8481 54.0031 15.2031 54.2066 15.4596C54.4894 15.8162 54.9335 15.8357 55.3501 15.7932C55.7355 15.7539 56.1125 15.6242 56.4652 15.4699C56.9365 15.2636 57.3909 15.0179 57.7992 14.705C58.261 14.3512 58.661 13.9375 58.9626 13.4406C59.3362 12.8236 59.482 12.0794 59.3725 11.3695C59.3385 11.1491 59.3004 10.9299 59.2659 10.71C59.7701 10.3307 60.2807 9.95995 60.7942 9.59466C60.7807 9.62352 60.7667 9.65209 60.7532 9.68106C60.5026 10.2312 60.2561 10.7924 60.105 11.3789C59.9381 12.0265 59.8017 12.7576 60.0722 13.3993C60.1659 13.622 60.3263 13.8504 60.5524 13.9569C60.813 14.0796 61.0507 14.0797 61.3335 14.031C61.7592 13.9577 62.1662 13.7296 62.4994 13.4631C62.9614 13.0934 63.3572 12.65 63.7191 12.1852C64.2203 11.5405 64.6741 10.8586 65.1209 10.1757C65.1736 10.0949 65.2257 10.0135 65.2779 9.93254C65.1514 10.2826 65.022 10.6317 64.8873 10.9789C64.7965 11.2125 64.704 11.4452 64.6092 11.6771C64.5647 11.7848 64.5201 11.8923 64.4745 11.9995C64.4511 12.0557 64.427 12.1118 64.403 12.1679C64.3702 12.2443 64.2619 12.4901 64.4077 12.1579C64.297 12.4105 64.2168 12.6467 64.2203 12.9273C64.2233 13.1266 64.2701 13.4176 64.4106 13.5768C64.526 13.7079 64.6888 13.8139 64.8744 13.7542C65.0577 13.6955 65.2211 13.5439 65.3077 13.3739C65.4746 13.1572 65.6684 12.9563 65.8505 12.7549C66.2581 12.3038 66.6727 11.8585 67.0878 11.414C67.7185 10.7386 68.3521 10.0658 68.9856 9.39341C68.8972 9.56459 68.8059 9.73495 68.7116 9.90305C68.5804 10.1344 68.4282 10.3569 68.3169 10.5984C68.0985 11.0723 67.9732 11.5917 68.0763 12.1127C68.1407 12.438 68.3122 12.7999 68.6197 12.9643C68.9388 13.1351 69.2544 13.0773 69.5642 12.9218C69.8207 12.7931 70.0209 12.578 70.2265 12.3831C70.8032 11.8353 71.3419 11.2505 71.8619 10.6494C71.9545 11.0005 72.1834 11.3283 72.5137 11.4945C72.6653 11.571 72.8404 11.6418 73.0137 11.6499C73.2726 11.6619 73.4552 11.6067 73.6737 11.4701C74.2803 11.0918 74.8061 10.5937 75.2863 10.0696C75.7916 9.51779 76.2648 8.93883 76.814 8.42763C76.9786 8.27451 77.0775 7.94999 77.1109 7.74125C77.1466 7.51607 77.1437 7.21007 77.0424 6.99738ZM16.6583 14.9552C16.7478 14.8419 16.838 14.7289 16.928 14.6158C18.1548 13.0807 19.4155 11.5719 20.7217 10.1025C22.0631 8.59363 23.4521 7.12599 24.8948 5.71191C25.6727 4.9495 26.4688 4.19525 27.3307 3.52558C27.8638 3.12499 28.4354 2.74608 29.0555 2.4936C29.1959 2.44527 29.3397 2.40547 29.486 2.38097C29.2552 2.80681 28.9899 3.21781 28.7228 3.62037C28.3935 4.1165 28.0464 4.60091 27.6878 5.07649C27.5018 5.32306 27.312 5.5669 27.1201 5.80903C26.3232 6.80281 25.4852 7.76395 24.6221 8.70169C23.6649 9.74174 22.677 10.754 21.668 11.7447C20.6268 12.7673 19.5629 13.7669 18.4804 14.7464C17.4136 15.7116 16.3289 16.6575 15.2267 17.5827C14.7065 18.0192 14.1825 18.4514 13.6541 18.8784C14.6378 17.5575 15.6363 16.2473 16.6583 14.9552ZM39.0803 14.0929C39.6313 13.3658 40.2615 12.7011 40.9586 12.1101C41.7829 11.4395 42.6914 10.876 43.663 10.4411C43.6667 10.484 43.6728 10.5256 43.6814 10.5657C43.5714 10.8719 43.4484 11.1735 43.3141 11.4704C42.9926 12.1383 42.6117 12.7763 42.1744 13.3761C41.6557 14.0549 41.0661 14.678 40.4106 15.2286C40.0956 15.4851 39.7653 15.733 39.3975 15.9073C39.2712 15.9532 39.142 15.9857 39.0081 16.0012C38.9289 15.9969 38.8514 15.9841 38.7743 15.9642C38.7174 15.9365 38.6634 15.9045 38.612 15.8678C38.5707 15.825 38.5328 15.7798 38.4973 15.7323C38.4737 15.6879 38.4525 15.6425 38.4328 15.5963C38.4206 15.5507 38.4098 15.5047 38.4009 15.4584C38.3999 15.4368 38.3993 15.4152 38.399 15.3937C38.4062 15.3407 38.415 15.2879 38.4256 15.2355C38.4535 15.1488 38.4852 15.0636 38.5203 14.9796C38.6792 14.6679 38.874 14.3759 39.0803 14.0929ZM26.466 16.627C26.1589 16.9991 25.8185 17.3422 25.4385 17.6411C25.115 17.8727 24.7679 18.068 24.3985 18.2182C24.1136 18.3175 23.82 18.3877 23.5188 18.41C23.3346 18.4064 23.153 18.3821 22.9761 18.3318C22.8588 18.2817 22.748 18.2199 22.6437 18.1465C22.5931 18.0993 22.5459 18.049 22.5016 17.996C22.4803 17.9595 22.4598 17.9224 22.4416 17.8844C22.4359 17.864 22.4297 17.8435 22.4248 17.823C22.4234 17.7995 22.4225 17.7758 22.4219 17.7523C22.428 17.7083 22.4351 17.6646 22.4437 17.621C22.4799 17.51 22.5223 17.4014 22.57 17.2947C22.842 16.7819 23.1989 16.3099 23.561 15.8547C23.6319 15.7669 23.7046 15.6807 23.777 15.5942C23.9556 15.3906 24.1333 15.186 24.3109 14.9815C25.0425 14.1794 25.8429 13.4405 26.7036 12.7746C26.7908 12.7091 26.8787 12.6447 26.967 12.5809C27.0223 12.7328 27.0882 12.8804 27.1641 13.0206C27.3554 13.3741 27.6089 13.6912 27.9109 13.9557C27.7767 14.3337 27.6168 14.7034 27.4427 15.0643C27.1637 15.6125 26.8422 16.1389 26.466 16.627ZM31.2251 16.9786C30.8347 17.2888 30.4183 17.5766 29.9603 17.7782C29.8625 17.8142 29.7633 17.8423 29.66 17.857C29.6248 17.8543 29.5901 17.8494 29.5555 17.8423C29.5397 17.8338 29.5239 17.8252 29.5087 17.8157C29.5052 17.8117 29.5019 17.8073 29.4984 17.8033C29.4949 17.7963 29.4909 17.7895 29.4876 17.7825C29.4828 17.7633 29.4775 17.7443 29.4734 17.7249C29.4708 17.6814 29.4697 17.6378 29.4697 17.5941C29.4817 17.507 29.4986 17.4207 29.5178 17.3348C29.5996 17.0434 29.7035 16.7597 29.8276 16.4836C30.036 16.0707 30.2858 15.681 30.5597 15.3079C30.9455 14.8072 31.3654 14.3395 31.8019 13.8832C31.9389 13.7734 32.0715 13.6581 32.198 13.5367C32.2708 13.4669 32.3323 13.3809 32.3831 13.2878C32.7383 12.9335 33.1042 12.5899 33.4915 12.2706C33.806 12.0233 34.1392 11.7929 34.5043 11.6267C34.644 11.5758 34.7878 11.5385 34.9358 11.5227C35.0016 11.5265 35.0668 11.5358 35.1308 11.5515C35.178 11.5745 35.2231 11.6009 35.2663 11.6306C35.3016 11.6666 35.3345 11.7047 35.3653 11.7446C35.3879 11.7867 35.4083 11.8299 35.4273 11.8736C35.4466 11.9423 35.4626 12.0118 35.4753 12.082C35.479 12.1395 35.4807 12.1971 35.4805 12.2548C35.4778 12.2785 35.4758 12.3024 35.4724 12.3259C34.4117 13.6447 33.3455 14.9667 32.1347 16.1537C31.8424 16.4403 31.5406 16.7171 31.2251 16.9786ZM25.0001 29.0316C24.5272 29.7486 24.0755 30.482 23.5846 31.1868C23.4747 31.3445 23.3618 31.5 23.2468 31.6541C22.856 32.158 22.4287 32.6329 21.9384 33.0437C21.6971 33.2309 21.4408 33.4004 21.163 33.5291C21.0192 33.5816 20.8711 33.6194 20.7188 33.6353C20.6434 33.6313 20.5691 33.6209 20.496 33.6029C20.4598 33.5862 20.4243 33.5678 20.39 33.5474C20.3804 33.5361 20.3712 33.5244 20.3619 33.5127C20.3491 33.4883 20.3371 33.4635 20.3259 33.4383C20.3201 33.4152 20.3151 33.3919 20.3104 33.3687C20.3081 33.3231 20.3071 33.2773 20.3075 33.2317C20.3214 33.1139 20.3412 32.9972 20.3664 32.8813C20.4609 32.5434 20.583 32.2116 20.7277 31.8917C20.9883 31.3692 21.3018 30.875 21.6487 30.4044C22.3523 29.4934 23.1888 28.6758 24.0147 27.8751C24.8733 27.0429 25.7623 26.2418 26.6708 25.4635C27.1615 25.0431 27.6585 24.6299 28.1593 24.2214C28.2123 24.1784 28.2658 24.1362 28.3189 24.0934C27.6967 25.0081 27.0756 25.9236 26.4587 26.842C25.9696 27.57 25.483 28.2996 25.0001 29.0316ZM36.8716 19.5192C35.645 19.7782 34.4212 20.0509 33.2009 20.3376C34.0744 19.6865 34.9492 19.0372 35.8224 18.3856C36.3526 17.99 36.881 17.5919 37.4078 17.1919C37.6619 17.5768 37.9867 17.8633 38.4504 17.9888C38.9289 18.1181 39.4328 17.9528 39.8589 17.7424C40.2029 17.5724 40.5111 17.3355 40.809 17.0968C41.1359 16.8348 41.4543 16.5623 41.7552 16.2712C42.3289 15.7159 42.8345 15.0997 43.2957 14.4502C44.1125 13.3001 44.7439 11.9955 45.1408 10.6415C45.3836 10.4607 45.6296 10.2841 45.8813 10.116C46.0377 10.0116 46.1968 9.90938 46.3599 9.81415C46.048 10.4835 45.6993 11.136 45.349 11.786C44.9302 12.5633 44.5037 13.3365 44.0954 14.1192C43.8818 14.5286 43.6731 14.9406 43.4768 15.3585C43.3799 15.5647 43.3114 15.7608 43.2951 15.991C43.2811 16.1895 43.2916 16.4187 43.3846 16.6003C43.4453 16.7191 43.5236 16.8295 43.6354 16.9063C43.793 17.0146 44.0103 16.977 44.1621 16.8845C44.4108 16.7327 44.6325 16.5338 44.8467 16.3391C45.0696 16.1366 45.2791 15.9196 45.483 15.6983C45.9935 15.144 46.4703 14.5594 46.9403 13.9713C47.266 13.5637 47.5869 13.1523 47.9069 12.7404C47.1895 14.2215 46.5033 15.7192 45.8775 17.2409C45.7614 17.4632 45.6478 17.6867 45.5366 17.9113C45.3423 17.9427 45.1481 17.9737 44.9539 18.0055C43.5817 18.2315 42.2117 18.4722 40.8449 18.7284C39.5174 18.9772 38.1928 19.2403 36.8716 19.5192ZM51.9709 12.995C51.8308 13.138 51.6854 13.2758 51.535 13.4081C51.3431 13.5656 51.1392 13.7118 50.917 13.8232C50.8327 13.855 50.7459 13.8794 50.6567 13.8927C50.6202 13.8902 50.5841 13.8852 50.5485 13.8773C50.5289 13.8667 50.51 13.8553 50.4916 13.843C50.4659 13.8144 50.4416 13.7848 50.4192 13.7536C50.3919 13.6989 50.3678 13.6426 50.346 13.5854C50.2945 13.4 50.2594 13.2106 50.2341 13.02C50.2313 12.99 50.2285 12.9601 50.2262 12.9302C50.3472 12.7572 50.4682 12.5842 50.5916 12.4129C50.9982 11.8547 51.4171 11.305 51.8551 10.7706C52.2656 10.2698 52.692 9.78065 53.1472 9.31926C53.3524 9.11128 53.5644 8.91003 53.7848 8.71789C54.0566 8.49161 54.3466 8.27887 54.6652 8.12407C54.7695 8.08359 54.8775 8.05294 54.9882 8.03784C55.0247 8.04016 55.0607 8.04516 55.0963 8.05265C55.1146 8.06252 55.1326 8.07274 55.15 8.08429C55.1623 8.09852 55.1744 8.1128 55.1858 8.12784C55.1989 8.15525 55.2111 8.18294 55.2225 8.2111C55.2338 8.25547 55.2437 8.30017 55.2519 8.34517C55.253 8.37287 55.2536 8.40068 55.2536 8.42838C55.2501 8.45219 55.2461 8.47605 55.2419 8.4998C55.2294 8.53801 55.2153 8.57581 55.2008 8.61326C55.0529 8.89447 54.8622 9.16092 54.6909 9.42552C54.4725 9.76282 54.2496 10.0973 54.0214 10.4281C53.8889 10.6203 53.7541 10.8108 53.6176 11.0003C53.1098 11.6962 52.575 12.3787 51.9709 12.995ZM58.1599 12.0433C58.1557 12.0521 58.1515 12.061 58.1473 12.0697C58.1485 12.0644 58.1498 12.0593 58.151 12.0543C58.2193 11.893 58.1903 11.9797 58.1599 12.0433ZM58.118 12.1254C58.0924 12.1745 58.065 12.2226 58.0359 12.2696C57.9312 12.4089 57.8145 12.5388 57.6892 12.6602C57.4025 12.9119 57.0854 13.1293 56.751 13.3136C56.6647 13.3612 56.5766 13.4054 56.4879 13.4486C56.264 13.5493 56.0324 13.6373 55.7947 13.7013C55.9576 13.5234 56.1275 13.3516 56.2991 13.1839C56.4264 13.0595 56.5567 12.9381 56.6876 12.8175C57.1273 12.4198 57.5802 12.0363 58.042 11.663C58.0677 11.817 58.094 11.971 58.118 12.1254ZM73.0032 10.3912C72.9956 10.4117 72.9886 10.4324 72.9798 10.4527C72.9054 10.6197 72.9476 10.5202 73.0032 10.3912Z" fill="#323232"/>
<path d="M78.942 4.27698C78.9971 4.22163 79.0586 4.15091 79.1341 4.06789C79.2102 3.98487 79.2858 3.89878 79.3683 3.80653C79.4474 3.71429 79.5229 3.62512 79.592 3.54211C79.6605 3.45909 79.7191 3.38529 79.7671 3.3238C79.8151 3.26537 79.8391 3.2254 79.8462 3.20388C79.8532 3.18236 79.8567 3.16391 79.8567 3.14853C79.8567 3.09011 79.8116 3.05936 79.7226 3.05936C79.5985 3.05936 79.4404 3.09319 79.2512 3.16083L79.2547 3.18851C79.2547 3.20388 79.2442 3.24078 79.2202 3.30227C79.1997 3.36684 79.1722 3.44679 79.1376 3.54211C79.0521 3.79731 78.9865 4.04329 78.942 4.27698ZM78.6668 5.2609C78.8249 5.2609 78.983 5.20863 79.1411 5.10409C79.2992 4.99955 79.4509 4.85503 79.5949 4.67055C79.2864 4.77751 79.0633 5.02222 78.8729 5.10717L78.8249 5.11332C78.6979 5.11332 78.6083 5.03644 78.5603 4.88578C78.5222 4.77817 78.5017 4.64595 78.5017 4.48913C78.5017 4.20011 78.5398 3.91108 78.6188 3.62512C78.6598 3.44986 78.7078 3.30227 78.7664 3.17928C78.8249 3.05936 78.8765 2.98864 78.928 2.96712L78.9245 2.94252C78.9245 2.92407 78.935 2.9087 78.959 2.89333C78.9901 2.8718 79.0691 2.8472 79.1891 2.81953C79.3027 2.80416 79.4029 2.79801 79.4884 2.79801C79.6225 2.79801 79.7466 2.81338 79.8567 2.84105C79.9803 2.87795 80.0698 2.93945 80.1313 3.02554C80.1659 3.08089 80.1834 3.13931 80.1834 3.19465C80.1834 3.37607 80.0423 3.63127 79.7601 3.9572C79.6465 4.08326 79.5159 4.2247 79.3648 4.38152L79.602 4.31695C79.688 4.29542 79.7741 4.2862 79.8567 4.2862C79.9393 4.14784 80.0113 4.0064 80.0798 3.86496C80.2074 3.58823 80.3 3.33917 80.3515 3.12086C80.3691 3.03169 80.379 2.95175 80.379 2.88717C80.3656 2.72422 80.307 2.61352 80.2039 2.54895C80.1383 2.51205 80.0558 2.49361 79.9562 2.49361C79.8426 2.49361 79.7191 2.5182 79.578 2.5674C79.4093 2.62582 79.2413 2.70576 79.0691 2.81338C78.897 2.921 78.7494 3.03477 78.6288 3.15775C78.4912 3.29304 78.3951 3.41604 78.3471 3.52673C78.206 3.93567 78.1269 4.2862 78.1164 4.57215C78.1164 4.68285 78.1234 4.77509 78.1404 4.85196C78.175 5.018 78.2575 5.13484 78.3951 5.20249C78.4707 5.24246 78.5603 5.2609 78.6668 5.2609ZM78.8729 5.61143C78.7389 5.61143 78.6118 5.59298 78.4876 5.55916C78.2921 5.50689 78.1234 5.41464 77.9753 5.28243C77.8207 5.14406 77.7106 4.96573 77.6456 4.74742C77.597 4.60598 77.5765 4.45224 77.5765 4.28927C77.5765 4.18473 77.5835 4.07096 77.604 3.95413C77.5835 3.94797 77.563 3.94182 77.5455 3.9326C77.4939 3.90493 77.4664 3.85265 77.4664 3.78194C77.4664 3.66509 77.532 3.51136 77.6626 3.31765C77.7621 3.17006 77.8898 3.02246 78.0479 2.8718C78.2025 2.72114 78.3781 2.58893 78.5737 2.469C78.9005 2.27222 79.2272 2.17383 79.554 2.17383C79.6951 2.17383 79.8257 2.18305 79.9527 2.20765C80.3175 2.2753 80.5752 2.39829 80.7233 2.5797C80.7918 2.66272 80.8264 2.76419 80.8264 2.8841V2.94252C80.7784 3.41604 80.6613 3.86496 80.4791 4.29235C80.3726 4.54448 80.2414 4.76586 80.0868 4.96265C79.7466 5.39619 79.3408 5.61143 78.8729 5.61143Z" fill="#323232"/>
<path d="M75.7286 15.3125C75.235 15.2697 74.7296 15.2735 74.2424 15.3371C74.0551 15.3616 73.8946 15.4562 73.7881 15.5695C73.6686 15.6976 73.5895 15.8894 73.6018 16.0475C73.613 16.1934 73.6563 16.3607 73.8003 16.4707C73.9257 16.5669 74.0908 16.6341 74.2764 16.6099C74.5464 16.5747 74.8198 16.5586 75.0944 16.5598C75.2004 16.5636 75.3058 16.5694 75.4112 16.5785C75.6021 16.5951 75.7661 16.5567 75.9095 16.4623C76.0606 16.3623 76.1783 16.1921 76.2082 16.0432C76.2398 15.8877 76.2398 15.7104 76.1332 15.567C76.0495 15.4535 75.9154 15.3286 75.7286 15.3125Z" fill="#323232"/>
</g>
<defs>
<clipPath id="clip0_213_191">
<rect width="81" height="36" fill="white"/>
</clipPath>
</defs>
</svg>
