<svg width="136" height="18" viewBox="0 0 136 18" fill="none" xmlns="http://www.w3.org/2000/svg">
<g clip-path="url(#clip0_213_176)">
<path fill-rule="evenodd" clip-rule="evenodd" d="M10.596 0C10.7714 0 10.9457 0.00419921 11.1189 0.0126146C11.1224 0.0127825 11.1253 0.0100274 11.1253 0.00656847C11.1253 0.00322634 11.128 0.000517005 11.1314 0.000517005H20.8175C21.0244 0.000620843 21.192 0.16806 21.192 0.374827C21.192 0.474102 21.1526 0.569318 21.0824 0.639535L18.5425 3.17647H23.959C24.317 3.17647 24.6443 3.38712 24.7691 3.72241C25.1966 4.87125 25.4305 6.11419 25.4305 7.41177C25.4305 13.2595 20.6865 18 14.8344 18C14.6592 18 14.4849 17.9953 14.3118 17.9869C14.3082 17.9867 14.3052 17.9896 14.3052 17.9932C14.3052 17.9967 14.3023 17.9995 14.2988 17.9995H4.61301C4.4061 17.9994 4.23841 17.8319 4.23841 17.6252C4.23842 17.5259 4.27787 17.4307 4.34809 17.3605L6.88691 14.8235H1.47149C1.11351 14.8235 0.786166 14.6129 0.661392 14.2776C0.23387 13.1287 0 11.8858 0 10.5882C0 4.74052 4.74401 0 10.596 0ZM14.2219 7.49502C13.3473 6.47235 12.0478 5.82354 10.596 5.82354C7.96262 5.82354 5.82783 7.95676 5.82783 10.5882C5.82783 11.1452 5.9242 11.6796 6.09996 12.1765H9.5359L11.2086 10.505C12.0831 11.5276 13.3827 12.1765 14.8344 12.1765C17.4678 12.1765 19.6026 10.0432 19.6026 7.41177C19.6026 6.85476 19.5063 6.32038 19.3305 5.82354H15.8946L14.2219 7.49502Z" fill="#323232"/>
<path d="M131.053 13.578V7.24623C131.053 7.06376 130.889 6.89951 130.706 6.89951H130.469C130.323 6.89951 130.195 6.99077 130.14 7.11848L127.93 12.3373C127.62 13.1036 126.871 13.578 126.049 13.578C125.228 13.578 124.498 13.1036 124.187 12.3373L121.959 7.11848C121.923 6.99077 121.795 6.89951 121.649 6.89951H121.411C121.229 6.89951 121.064 7.06376 121.064 7.24623V13.578H119.001V7.24623C119.001 5.91419 120.078 4.81934 121.411 4.81934H121.649C122.617 4.81934 123.493 5.40326 123.877 6.31559L126.049 11.4614L128.223 6.31559C128.606 5.40326 129.483 4.81934 130.469 4.81934H130.706C132.039 4.81934 133.116 5.91419 133.116 7.24623V13.578H131.053Z" fill="#323232"/>
<path d="M109.583 13.578C107.483 13.578 105.785 11.8811 105.785 9.78261V4.81934H107.848V9.78261C107.848 10.7315 108.633 11.5161 109.583 11.5161H113.966C114.915 11.5161 115.7 10.7315 115.7 9.78261V4.81934H117.764V9.78261C117.764 11.8811 116.066 13.578 113.966 13.578H109.583Z" fill="#323232"/>
<path d="M101.983 11.5161C102.33 11.5161 102.622 11.2241 102.622 10.8775C102.622 10.5307 102.348 10.257 102.019 10.2388H97.144C95.6467 10.2388 94.4412 9.03449 94.4412 7.53819C94.4412 6.0419 95.6467 4.81934 97.144 4.81934H104.704V6.89951H97.144C96.7968 6.89951 96.5046 7.19147 96.5046 7.53819C96.5046 7.88487 96.7968 8.17683 97.144 8.17683H102.056C103.517 8.21333 104.704 9.39944 104.704 10.8775C104.704 12.3738 103.48 13.578 101.983 13.578H94.4412V11.5161H101.983Z" fill="#323232"/>
<path d="M82.8538 13.578V7.24623C82.8538 5.91419 83.9314 4.81934 85.2644 4.81934H90.5783C92.2945 4.81934 93.6824 6.22437 93.6824 7.93964C93.6824 9.65486 92.2945 11.0599 90.5783 11.0599H84.9172V13.578H82.8538ZM84.9172 7.24623V8.97972H90.5783C91.1444 8.97972 91.619 8.50529 91.619 7.93964C91.619 7.37394 91.1444 6.89951 90.5783 6.89951H85.2644C85.0816 6.89951 84.9172 7.06376 84.9172 7.24623Z" fill="#323232"/>
<path d="M79.3781 4.81934H81.4415V13.578H79.3781V4.81934Z" fill="#323232"/>
<path d="M73.9115 11.5161C75.19 11.5161 76.2307 10.476 76.2307 9.19869C76.2307 7.93964 75.19 6.89951 73.9115 6.89951H70.6975C69.4194 6.89951 68.3787 7.93964 68.3787 9.19869C68.3787 10.476 69.4194 11.5161 70.6975 11.5161H73.9115ZM73.9115 4.81934C76.3401 4.81934 78.2941 6.79002 78.2941 9.19869C78.2941 11.6256 76.3401 13.578 73.9115 13.578H70.6975C68.2688 13.578 66.3153 11.6256 66.3153 9.19869C66.3153 6.79002 68.2688 4.81934 70.6975 4.81934H73.9115Z" fill="#323232"/>
<path d="M58.2859 13.578C55.8573 13.578 53.9033 11.6256 53.9033 9.19869C53.9033 6.79002 55.8573 4.81934 58.2859 4.81934H64.6226V6.89951H58.2859C57.0079 6.89951 55.9672 7.93964 55.9672 9.19869C55.9672 10.476 57.0079 11.5161 58.2859 11.5161H62.9428C63.2896 11.5161 63.5818 11.2241 63.5818 10.8775C63.5818 10.5307 63.2896 10.2388 62.9428 10.2388H57.9392V8.17683H62.9428C64.4402 8.17683 65.6633 9.38117 65.6633 10.8775C65.6633 12.3738 64.4402 13.578 62.9428 13.578H58.2859Z" fill="#323232"/>
<path d="M48.8389 11.5161C50.1169 11.5161 51.1576 10.476 51.1576 9.19869C51.1576 7.93964 50.1169 6.89951 48.8389 6.89951H45.6249C44.3465 6.89951 43.3056 7.93964 43.3056 9.19869C43.3056 10.476 44.3465 11.5161 45.6249 11.5161H48.8389ZM48.8389 4.81934C51.2675 4.81934 53.221 6.79002 53.221 9.19869C53.221 11.6256 51.2675 13.578 48.8389 13.578H45.6249C43.1961 13.578 41.2422 11.6256 41.2422 9.19869C41.2422 6.79002 43.1961 4.81934 45.6249 4.81934H48.8389Z" fill="#323232"/>
<path d="M32.792 11.1695C32.792 11.3519 32.9563 11.5162 33.1389 11.5162H40.8633V13.5781H33.1389C31.8059 13.5781 30.7285 12.5015 30.7285 11.1695V4.76465H32.792V11.1695Z" fill="#323232"/>
<path d="M135.629 4.76488C135.629 5.34966 135.155 5.82369 134.57 5.82369C133.984 5.82369 133.51 5.34966 133.51 4.76488C133.51 4.18011 133.984 3.70605 134.57 3.70605C135.155 3.70605 135.629 4.18011 135.629 4.76488Z" fill="#323232"/>
</g>
<defs>
<clipPath id="clip0_213_176">
<rect width="136" height="18" fill="white"/>
</clipPath>
</defs>
</svg>
