<svg width="97" height="22" viewBox="0 0 97 22" fill="none" xmlns="http://www.w3.org/2000/svg">
<g clip-path="url(#clip0_213_500)">
<path fill-rule="evenodd" clip-rule="evenodd" d="M8.26705 15.4C7.53619 15.4 6.83527 15.1103 6.31848 14.5945C5.80169 14.0788 5.51136 13.3793 5.51136 12.65V0H0V12.65C0 17.2062 3.70143 20.9 8.26705 20.9H14.3295V15.4H8.26705ZM24.8011 5.5C24.1497 5.5 23.5047 5.62804 22.9029 5.8768C22.3011 6.12556 21.7543 6.49017 21.2937 6.94982C20.8331 7.40947 20.4678 7.95516 20.2185 8.55572C19.9692 9.15628 19.8409 9.79996 19.8409 10.45C19.8409 11.1 19.9692 11.7437 20.2185 12.3443C20.4678 12.9448 20.8331 13.4905 21.2937 13.9502C21.7543 14.4098 22.3011 14.7744 22.9029 15.0232C23.5047 15.272 24.1497 15.4 24.8011 15.4C26.1167 15.4 27.3783 14.8785 28.3085 13.9502C29.2388 13.0219 29.7614 11.7628 29.7614 10.45C29.7614 9.13718 29.2388 7.87813 28.3085 6.94982C27.3783 6.02152 26.1167 5.5 24.8011 5.5ZM14.3295 10.45C14.3295 4.67885 19.0181 0 24.8011 0C30.5842 0 35.2727 4.67885 35.2727 10.45C35.2727 16.2211 30.5842 20.9 24.8011 20.9C19.0181 20.9 14.3295 16.2211 14.3295 10.45ZM84.3239 5.5C83.0083 5.5 81.7467 6.02152 80.8164 6.94982C79.8862 7.87813 79.3636 9.13718 79.3636 10.45C79.3636 11.7628 79.8862 13.0219 80.8164 13.9502C81.7467 14.8785 83.0083 15.4 84.3239 15.4C85.6394 15.4 86.901 14.8785 87.8313 13.9502C88.7615 13.0219 89.2841 11.7628 89.2841 10.45C89.2841 9.13718 88.7615 7.87813 87.8313 6.94982C86.901 6.02152 85.6394 5.5 84.3239 5.5ZM73.8523 10.45C73.8523 4.67885 78.5408 0 84.3239 0C90.1069 0 94.7954 4.67885 94.7954 10.45C94.7954 16.2211 90.1069 20.9 84.3239 20.9C78.5408 20.9 73.8523 16.2211 73.8523 10.45ZM46.8466 0C41.0635 0 36.375 4.67885 36.375 10.45C36.375 16.2211 41.0635 20.9 46.8466 20.9H62.2784C63.3636 20.9 64.4102 20.735 65.3945 20.4292L68.3409 22L71.5199 16.0578C72.3274 14.5451 72.7498 12.8575 72.75 11.1435V10.45C72.75 4.67885 68.0615 0 62.2784 0H46.8466ZM67.2386 10.45C67.2386 9.13718 66.716 7.87813 65.7858 6.94982C64.8556 6.02152 63.5939 5.5 62.2784 5.5H46.8466C46.1952 5.5 45.5502 5.62804 44.9484 5.8768C44.3466 6.12556 43.7998 6.49017 43.3392 6.94982C42.8786 7.40947 42.5132 7.95516 42.2639 8.55572C42.0147 9.15628 41.8864 9.79996 41.8864 10.45C41.8864 11.1 42.0147 11.7437 42.2639 12.3443C42.5132 12.9448 42.8786 13.4905 43.3392 13.9502C43.7998 14.4098 44.3466 14.7744 44.9484 15.0232C45.5502 15.272 46.1952 15.4 46.8466 15.4H62.2784C63.5873 15.4 64.8431 14.8838 65.7722 13.9638C66.7014 13.0438 67.2284 11.7946 67.2386 10.4885V10.45Z" fill="#323232"/>
<path d="M96.9999 1.375C96.9999 1.73967 96.8548 2.08941 96.5964 2.34727C96.338 2.60513 95.9875 2.75 95.6221 2.75C95.2567 2.75 94.9062 2.60513 94.6478 2.34727C94.3894 2.08941 94.2443 1.73967 94.2443 1.375C94.2443 1.01033 94.3894 0.660591 94.6478 0.402728C94.9062 0.144866 95.2567 0 95.6221 0C95.9875 0 96.338 0.144866 96.5964 0.402728C96.8548 0.660591 96.9999 1.01033 96.9999 1.375Z" fill="#323232"/>
</g>
<defs>
<clipPath id="clip0_213_500">
<rect width="97" height="22" fill="white"/>
</clipPath>
</defs>
</svg>
