<svg width="93" height="22" viewBox="0 0 93 22" fill="none" xmlns="http://www.w3.org/2000/svg">
<g clip-path="url(#clip0_213_504)">
<path fill-rule="evenodd" clip-rule="evenodd" d="M5.5111 1.375V22H0V1.375H5.5111Z" fill="#323232"/>
<path fill-rule="evenodd" clip-rule="evenodd" d="M8.2666 1.375H19.9777C23.7824 1.375 26.8666 4.45304 26.8666 8.25C26.8666 12.047 23.7824 15.125 19.9777 15.125H13.7777V22H8.2666V1.375ZM13.7777 9.625H19.9777C20.7387 9.625 21.3555 9.00939 21.3555 8.25C21.3555 7.49062 20.7387 6.875 19.9777 6.875H13.7777V9.625Z" fill="#323232"/>
<path fill-rule="evenodd" clip-rule="evenodd" d="M47.5333 1.375V12.0312C47.5333 14.4993 49.538 16.5 52.0111 16.5C54.4841 16.5 56.4889 14.4993 56.4889 12.0312V1.375H62.0002V12.0312C62.0002 17.5369 57.5279 22 52.0111 22C46.4944 22 42.0222 17.5369 42.0222 12.0312V1.375H47.5333Z" fill="#323232"/>
<path fill-rule="evenodd" clip-rule="evenodd" d="M28.9333 11C28.9333 5.68425 33.2513 1.375 38.5778 1.375H39.9555V6.875H38.5778C36.295 6.875 34.4444 8.72185 34.4444 11V11.6875C34.4444 17.3829 29.8181 22 24.1111 22H23.4222V16.5H24.1111C26.7744 16.5 28.9333 14.3454 28.9333 11.6875V11Z" fill="#323232"/>
<path d="M93 2.0625C93 3.20159 92.0749 4.125 90.9331 4.125C89.7917 4.125 88.8667 3.20159 88.8667 2.0625C88.8667 0.923412 89.7917 0 90.9331 0C92.0749 0 93 0.923412 93 2.0625Z" fill="#323232"/>
<path d="M67.9176 22L70.5474 11.0099L72.5026 17.6216C73.6681 21.565 79.2652 21.565 80.4313 17.6216L82.3859 11.0099L85.0158 22H90.6816L86.5467 4.7187C85.5633 0.609077 79.7605 0.456915 78.5619 4.50939L76.4669 11.5958L74.3714 4.50939C73.1734 0.456939 67.37 0.609055 66.3866 4.7187L62.2517 22H67.9176Z" fill="#323232"/>
</g>
<defs>
<clipPath id="clip0_213_504">
<rect width="93" height="22" fill="white"/>
</clipPath>
</defs>
</svg>
