<svg xmlns="http://www.w3.org/2000/svg" viewBox="0 0 24 24" fill="#ffffff"><path d="M12 2.2c3.2 0 3.6 0 4.9.1 1.2.1 1.8.2 2.2.4.6.2 1 .5 1.4.9.4.4.7.8.9 1.4.2.4.4 1 .4 2.2.1 1.3.1 1.7.1 4.9s0 3.6-.1 4.9c-.1 1.2-.2 1.8-.4 2.2-.2.6-.5 1-.9 1.4-.4.4-.8.7-1.4.9-.4.2-1 .4-2.2.4-1.3.1-1.7.1-4.9.1s-3.6 0-4.9-.1c-1.2-.1-1.8-.2-2.2-.4-.6-.2-1-.5-1.4-.9-.4-.4-.7-.8-.9-1.4-.2-.4-.4-1-.4-2.2-.1-1.3-.1-1.7-.1-4.9s0-3.6.1-4.9c.1-1.2.2-1.8.4-2.2.2-.6.5-1 .9-1.4.4-.4.8-.7 1.4-.9.4-.2 1-.4 2.2-.4 1.3-.1 1.7-.1 4.9-.1M12 0C8.7 0 8.3 0 7 .1 5.8.2 4.9.4 4.1.7c-.8.3-1.5.8-2.2 1.4C1.3 2.8.8 3.5.5 4.3.2 5.1 0 6 0 7.2 0 8.5 0 8.9 0 12.2s0 3.7.1 5c.1 1.2.3 2.1.6 2.9.3.8.8 1.5 1.4 2.2.7.7 1.4 1.1 2.2 1.4.8.3 1.7.5 2.9.6 1.3.1 1.7.1 5 .1s3.7 0 5-.1c1.2-.1 2.1-.3 2.9-.6.8-.3 1.5-.8 2.2-1.4.7-.7 1.1-1.4 1.4-2.2.3-.8.5-1.7.6-2.9.1-1.3.1-1.7.1-5s0-3.7-.1-5c-.1-1.2-.3-2.1-.6-2.9-.3-.8-.8-1.5-1.4-2.2C21.6 1.4 20.9 1 20.1.7c-.8-.3-1.7-.5-2.9-.6C15.9 0 15.5 0 12.2 0H12zm0 5.8a6.2 6.2 0 1 0 0 12.4 6.2 6.2 0 0 0 0-12.4zM12 16a4 4 0 1 1 0-8 4 4 0 0 1 0 8zm7.8-10.4a1.4 1.4 0 1 1-2.9 0 1.4 1.4 0 0 1 2.9 0z"/></svg>
