<svg width="249" height="98" viewBox="0 0 249 98" fill="none" xmlns="http://www.w3.org/2000/svg">
<path d="M0.000396729 76.7432V59.3506L40.1811 1.52344H68.1742V59.541H79.6635V76.7432H68.1742V96.1035H46.7191V76.7432H0.000396729ZM46.7191 59.541V22.5342H46.6557L21.2016 59.4141V59.541H46.7191ZM124.227 97.627C115.932 97.627 108.802 95.6592 102.835 91.7236C96.8682 87.7881 92.2767 82.181 89.0606 74.9023C85.8867 67.5814 84.2998 58.9062 84.2998 48.877C84.2998 38.8053 85.8867 30.1302 89.0606 22.8516C92.2767 15.5306 96.8682 9.90234 102.835 5.9668C108.802 1.98893 115.932 0 124.227 0C132.563 0 139.715 1.98893 145.682 5.9668C151.648 9.90234 156.219 15.5306 159.393 22.8516C162.566 30.1302 164.153 38.8053 164.153 48.877C164.153 58.9486 162.566 67.6237 159.393 74.9023C156.219 82.181 151.648 87.7881 145.682 91.7236C139.715 95.6592 132.563 97.627 124.227 97.627ZM124.227 79.7266C129.939 79.7266 134.446 76.9759 137.747 71.4746C141.048 65.9733 142.698 58.4408 142.698 48.877C142.698 39.2708 141.048 31.7171 137.747 26.2158C134.446 20.6722 129.939 17.9004 124.227 17.9004C118.514 17.9004 114.007 20.6722 110.706 26.2158C107.448 31.7171 105.818 39.2708 105.818 48.877C105.818 58.4408 107.448 65.9733 110.706 71.4746C114.007 76.9759 118.514 79.7266 124.227 79.7266ZM168.726 76.7432V59.3506L208.907 1.52344H236.9V59.541H248.389V76.7432H236.9V96.1035H215.445V76.7432H168.726ZM215.445 59.541V22.5342H215.381L189.927 59.4141V59.541H215.445Z" fill="#101010"/>
</svg>
